<svg xmlns="http://www.w3.org/2000/svg" viewBox="0 0 168.29 126.81"><defs><style>.cls-1{fill:#047283;}.cls-2{font-size:13.92px;fill:#fff;font-family:Montserrat-Medium, Montserrat;font-weight:500;letter-spacing:0.02em;}.cls-3{fill:#5ababb;}.cls-4{fill:#2ea69b;}</style></defs><g id="Capa_2" data-name="Capa 2"><g id="ICONO_-_Tipo_de_Juego" data-name="ICONO - Tipo de Juego"><rect id="Cuadrado" class="cls-1" width="168.29" height="126.81"/><text class="cls-2" transform="translate(50.3 94.38) scale(1.11 1)">Parques<tspan x="-0.4" y="16.7">de Agua</tspan></text><path class="cls-3" d="M119.46,80.12c-19.46-10.8-33.29-1.29-61.83.44C35.32,43.64,105,9.14,107.78,45.08a.5.5,0,0,1-.91.32c-5-7.78-18.17-6.64-14.22,5.76C95.68,60.64,116,64.56,119.46,80.12Z"/><path class="cls-4" d="M50.29,52.43c-.81-3-.81-3-1.08-4.37a48.83,48.83,0,0,1-1-10.72C48.49,29,52.75,16,61.87,13.42a5.91,5.91,0,0,1,7.28,4.68c.65,4-3.13,7.44-6,9.62C55.54,33.65,50.07,42.52,50.29,52.43Z"/><path class="cls-4" d="M67.32,33.45a46.43,46.43,0,0,1,2.4-4.22,52,52,0,0,1,7.19-9.08c6.33-6.33,19.32-13.37,28.34-8.61a6.34,6.34,0,0,1,2.22,9c-2.43,3.59-8,3.5-11.77,3.12C85.33,22.65,74.49,25.53,67.32,33.45Z"/></g></g></svg>