<svg xmlns="http://www.w3.org/2000/svg" viewBox="0 0 841.89 126.81"><defs><style>.cls-1{fill:#1a5672;}.cls-2{fill:#fff;}</style></defs><g id="Capa_2" data-name="Capa 2"><g id="RENDER_PRINCIPAL_PRODUCTO" data-name="RENDER PRINCIPAL PRODUCTO"><rect id="Rectangulo_base" data-name="Rectangulo base" class="cls-1" width="841.89" height="126.81"/><path class="cls-2" d="M642.74,40.27V20.69H632.9V37.86h-9.85V27.6H608V37.86H598.1V32.27h-9.84v8a5.61,5.61,0,0,0,0,1.37V105.9H608V91.2H623.1v14.7h19.69V41.64h0A5.61,5.61,0,0,0,642.74,40.27ZM608,73.77V60.12c0-5.19,5.19-6.87,7.55-7.36,2.36.49,7.55,2.17,7.55,7.36a3,3,0,0,0,.05.44V73.77Z"/><path class="cls-2" d="M653.57,45.4h10.66c6.29,0,10.34,3.23,10.34,8.74v.07c0,5.86-4.51,8.95-10.7,8.95h-3.41v7.11h-6.89Zm10.16,12.36c2.45,0,3.95-1.28,3.95-3.23v-.07c0-2.13-1.5-3.27-4-3.27h-3.24v6.57Z"/><path class="cls-2" d="M683.59,45.22h6.64l10.59,25h-7.39l-1.81-4.44H682l-1.78,4.44H673Zm6,15.24-2.77-7.07-2.81,7.07Z"/><path class="cls-2" d="M703.23,45.4H715c3.8,0,6.43,1,8.1,2.7a7.69,7.69,0,0,1,2.2,5.79V54a7.86,7.86,0,0,1-5.11,7.64l5.93,8.67h-8l-5-7.53h-3v7.53h-6.89Zm11.44,11.94c2.34,0,3.69-1.14,3.69-3v-.07c0-2-1.42-3-3.73-3h-4.51v6Z"/><path class="cls-2" d="M748.84,68.56a13.76,13.76,0,0,1-7.56,2.2c-7.68,0-13.36-5.71-13.36-12.85v-.08c0-7.14,5.75-12.93,13.43-12.93s13.35,5.72,13.35,12.86v.07A12.39,12.39,0,0,1,752.5,65l2.56,2.17L751.58,71Zm-5-4.37-3.45-2.95,3.49-3.9,3.37,3a6.83,6.83,0,0,0,.43-2.41v-.07a6.51,6.51,0,0,0-6.43-6.79c-3.77,0-6.29,3.13-6.29,6.71v.08a6.46,6.46,0,0,0,6.36,6.74A7,7,0,0,0,743.87,64.19Z"/><path class="cls-2" d="M758,59.36v-14h7V59.22c0,3.59,1.81,5.29,4.58,5.29s4.58-1.63,4.58-5.11v-14h7V59.18c0,8-4.58,11.55-11.65,11.55S758,67.14,758,59.36Z"/><path class="cls-2" d="M785.22,45.4h20v5.86H792V55H804v5.43H792v3.95h13.35v5.86H785.22Z"/><path class="cls-2" d="M807,66.57,810.86,62a12.83,12.83,0,0,0,8.07,3c1.84,0,2.84-.63,2.84-1.7V63.2c0-1-.82-1.6-4.19-2.38-5.3-1.21-9.38-2.7-9.38-7.82v-.07c0-4.62,3.66-8,9.63-8a15.64,15.64,0,0,1,10.23,3.3l-3.45,4.87a12.47,12.47,0,0,0-7-2.46c-1.67,0-2.49.72-2.49,1.6v.07c0,1.14.85,1.64,4.3,2.42,5.72,1.24,9.27,3.09,9.27,7.74v.07c0,5.08-4,8.1-10.05,8.1A17.32,17.32,0,0,1,807,66.57Z"/><path class="cls-2" d="M654,83.39V75.57H656v7.82Z"/><path class="cls-2" d="M663.79,75.57h2v7.82h-1.53L660.66,79v4.44h-1.92V75.57h1.5L663.79,80Z"/><path class="cls-2" d="M668.47,83.39V75.57h5.46v1.61H670.5v1.43h3.21v1.6H670.5v3.18Z"/><path class="cls-2" d="M681.59,83.39l-.7-1.62h-3.47l-.69,1.62h-2.06l3.65-7.82H680l3.67,7.82Zm-3.5-3.16h2.13l-1.06-2.48Z"/><path class="cls-2" d="M690.44,75.57h1.94v7.82h-1.53L687.31,79v4.44h-1.92V75.57h1.5L690.44,80Z"/><path class="cls-2" d="M696.87,83.39V77.24h-2.32V75.57h6.74v1.67H699v6.15Z"/><path class="cls-2" d="M703.44,83.39V75.57h2.07v7.82Z"/><path class="cls-2" d="M708.23,83.39V75.57h2.06v6.15h3.31v1.67Z"/><path class="cls-2" d="M715.91,83.39V75.57h5.58v1.58h-3.57v1.47h3.34V80.2h-3.34v1.61h3.57v1.58Z"/><path class="cls-2" d="M724.85,83.26a4.44,4.44,0,0,1-1.4-.63l.65-1.46a4.7,4.7,0,0,0,1.21.55,4.45,4.45,0,0,0,1.29.2,2.25,2.25,0,0,0,1-.18.58.58,0,0,0,.36-.52.56.56,0,0,0-.32-.48,4.08,4.08,0,0,0-1.2-.38,6.44,6.44,0,0,1-1.72-.55,2.07,2.07,0,0,1-.87-.76,2.37,2.37,0,0,1,.16-2.36,2.7,2.7,0,0,1,1.15-.9,4.23,4.23,0,0,1,1.68-.32,5.66,5.66,0,0,1,1.64.24,3.2,3.2,0,0,1,1.24.62l-.63,1.46a4.51,4.51,0,0,0-1.09-.56,3.5,3.5,0,0,0-1.14-.19,1.66,1.66,0,0,0-.9.21.66.66,0,0,0-.34.58.48.48,0,0,0,.12.33,1.26,1.26,0,0,0,.45.26,8.87,8.87,0,0,0,1,.27,6.63,6.63,0,0,1,1.67.55A1.87,1.87,0,0,1,730,81a2.1,2.1,0,0,1-.89,1.79,4.16,4.16,0,0,1-2.51.66A6.8,6.8,0,0,1,724.85,83.26Z"/><path class="cls-2" d="M737,75.57h3.2a4.83,4.83,0,0,1,2.23.47,3.23,3.23,0,0,1,1.44,1.34,4.68,4.68,0,0,1,0,4.19,3.25,3.25,0,0,1-1.44,1.35,5,5,0,0,1-2.24.47H737Zm3,6.17a2.36,2.36,0,0,0,1.71-.56,2.32,2.32,0,0,0,.57-1.71A2,2,0,0,0,740,77.22h-1v4.52Z"/><path class="cls-2" d="M746.85,83.39V75.57h5.58v1.58h-3.57v1.47h3.33V80.2h-3.33v1.61h3.57v1.58Z"/><path class="cls-2" d="M761,83a3.52,3.52,0,0,1-1.4-1.41,4.35,4.35,0,0,1-.49-2.11,4.27,4.27,0,0,1,.49-2.09A3.4,3.4,0,0,1,761,76a4.34,4.34,0,0,1,2.12-.5,5,5,0,0,1,1.49.23,3.06,3.06,0,0,1,1.16.63l-.63,1.46a3.34,3.34,0,0,0-2-.7,1.79,1.79,0,0,0-1.45.6,2.74,2.74,0,0,0-.5,1.78,2.79,2.79,0,0,0,.5,1.79,1.79,1.79,0,0,0,1.45.6,3.33,3.33,0,0,0,2-.69l.63,1.46a3.36,3.36,0,0,1-1.16.63,5,5,0,0,1-1.49.23A4.34,4.34,0,0,1,761,83Z"/><path class="cls-2" d="M769.6,83a3.28,3.28,0,0,1-1.36-1.4,4.52,4.52,0,0,1-.48-2.13,4.42,4.42,0,0,1,.48-2.12A3.34,3.34,0,0,1,769.61,76a4.66,4.66,0,0,1,4.16,0,3.31,3.31,0,0,1,1.36,1.39,4.54,4.54,0,0,1,.47,2.12,4.64,4.64,0,0,1-.47,2.13,3.34,3.34,0,0,1-1.36,1.4,4.29,4.29,0,0,1-2.08.49A4.36,4.36,0,0,1,769.6,83Zm3.47-1.71a2.88,2.88,0,0,0,.5-1.82,2.85,2.85,0,0,0-.5-1.81,1.69,1.69,0,0,0-1.38-.62,1.66,1.66,0,0,0-1.37.62,2.83,2.83,0,0,0-.5,1.81,2.91,2.91,0,0,0,.5,1.83,1.83,1.83,0,0,0,2.75,0Z"/><path class="cls-2" d="M778.13,83.39V75.57h2.06v6.15h3.31v1.67Z"/><path class="cls-2" d="M787,83a3.3,3.3,0,0,1-1.37-1.4,4.52,4.52,0,0,1-.48-2.13,4.31,4.31,0,0,1,.49-2.12A3.31,3.31,0,0,1,787,76a4.68,4.68,0,0,1,4.17,0,3.24,3.24,0,0,1,1.35,1.39,4.42,4.42,0,0,1,.47,2.12,4.52,4.52,0,0,1-.47,2.13,3.26,3.26,0,0,1-1.35,1.4A4.68,4.68,0,0,1,787,83Zm3.46-1.71a2.82,2.82,0,0,0,.5-1.82,2.79,2.79,0,0,0-.5-1.81,1.83,1.83,0,0,0-2.75,0,2.83,2.83,0,0,0-.49,1.81,2.91,2.91,0,0,0,.49,1.83,1.83,1.83,0,0,0,2.75,0Z"/><path class="cls-2" d="M801.82,75.57h1.6v7.82h-1.8V79.81l-1.49,3.58h-1.3l-1.5-3.54v3.54h-1.79V75.57h1.62l2.34,5.34Z"/><path class="cls-2" d="M812.5,80a2,2,0,0,1,.38,1.22,2,2,0,0,1-.34,1.13,2.19,2.19,0,0,1-1,.74,3.72,3.72,0,0,1-1.48.27h-3.9V75.57H810a3.12,3.12,0,0,1,1.95.55,1.77,1.77,0,0,1,.73,1.48,1.87,1.87,0,0,1-.32,1.07,1.82,1.82,0,0,1-.9.67A1.94,1.94,0,0,1,812.5,80Zm-4.31-1.4h1.44a1.61,1.61,0,0,0,.83-.17.62.62,0,0,0,.26-.56.67.67,0,0,0-.27-.59,1.49,1.49,0,0,0-.82-.18h-1.44Zm2.49,3a.69.69,0,0,0,.26-.62.74.74,0,0,0-.25-.64,1.44,1.44,0,0,0-.86-.19h-1.64v1.64h1.64A1.42,1.42,0,0,0,810.68,81.64Z"/><path class="cls-2" d="M815.2,83.39V75.57h2.07v7.82Z"/><path class="cls-2" d="M826,83.39l-.7-1.62h-3.47l-.69,1.62H819l3.65-7.82h1.63L828,83.39Zm-3.5-3.16h2.13l-1.06-2.48Z"/><path class="cls-2" d="M783.89,102.41l7.62-8.57h-7.36V90.28h13.18v3.06l-7.62,8.57h7.62v3.57H783.89Z"/><path class="cls-2" d="M799.52,90.28h4.22v11.5h7.36v3.7H799.52Z"/><path class="cls-2" d="M811.51,97.92v0a8.19,8.19,0,0,1,16.37,0v0a8.19,8.19,0,0,1-16.37,0Zm12.07,0v0a4,4,0,0,0-3.91-4.11,3.87,3.87,0,0,0-3.84,4.06v0a4,4,0,0,0,3.89,4.1A3.88,3.88,0,0,0,823.58,97.92Z"/><path class="cls-2" d="M763.25,92.63a1.07,1.07,0,0,1,.21.67,1,1,0,0,1-.19.63,1.27,1.27,0,0,1-.54.42,2.29,2.29,0,0,1-.83.14h-2.17V90.14h2.12a1.75,1.75,0,0,1,1.08.31,1,1,0,0,1,.41.82,1,1,0,0,1-.18.6,1,1,0,0,1-.5.37A1,1,0,0,1,763.25,92.63Zm-2.4-.78h.8a.84.84,0,0,0,.47-.1.41.41,0,0,0,0-.63.8.8,0,0,0-.46-.11h-.8Zm1.39,1.67a.38.38,0,0,0,.14-.35.4.4,0,0,0-.14-.35.8.8,0,0,0-.47-.1h-.92v.91h.92A.79.79,0,0,0,762.24,93.52Z"/><path class="cls-2" d="M768.61,90.14l-1.84,2.69v1.66h-1.15V92.83l-1.83-2.69h1.29l1.1,1.74,1.12-1.74Z"/><path class="cls-2" d="M781.91,91.94v-4h-2v3.52h-2v-2.1h-3.09v2.1h-2V90.3h-2v1.64a1.07,1.07,0,0,0,0,.28v13.14h4v-3h3.1v3h4V92.22h0A2.14,2.14,0,0,0,781.91,91.94Zm-7.12,6.85V96c0-1.06,1.06-1.4,1.54-1.51.49.11,1.55.45,1.55,1.51,0,0,0,.06,0,.09v2.7Z"/></g></g></svg>